<svg width="111" height="22" viewBox="0 0 111 22" fill="none" xmlns="http://www.w3.org/2000/svg">
<g clip-path="url(#clip0_964_16191)">
<path d="M20.1311 8.41256C20.0734 8.24274 19.9673 8.09353 19.8258 7.98335C19.6843 7.87316 19.5137 7.80681 19.3349 7.79251L14.1057 7.377L11.8429 2.36798C11.7709 2.20665 11.6536 2.06963 11.5054 1.97344C11.3572 1.87726 11.1843 1.82602 11.0076 1.82593C10.8309 1.82583 10.658 1.87687 10.5097 1.9729C10.3613 2.06892 10.244 2.20582 10.1717 2.36707L7.90891 7.377L2.67976 7.79251C2.50407 7.80642 2.3361 7.87066 2.19597 7.97754C2.05583 8.08442 1.94945 8.2294 1.88955 8.39516C1.82966 8.56091 1.81878 8.74041 1.85823 8.91218C1.89768 9.08395 1.98578 9.24072 2.11199 9.36373L5.9763 13.1308L4.60962 19.0488C4.56812 19.2279 4.58142 19.4154 4.64779 19.5869C4.71417 19.7584 4.83055 19.9059 4.98183 20.0105C5.13312 20.115 5.31233 20.1716 5.4962 20.173C5.68008 20.1744 5.86013 20.1205 6.01299 20.0183L11.0073 16.6888L16.0017 20.0183C16.1579 20.1221 16.3422 20.1755 16.5297 20.1713C16.7171 20.1672 16.8989 20.1058 17.0504 19.9953C17.202 19.8848 17.316 19.7306 17.3773 19.5533C17.4386 19.3761 17.4441 19.1843 17.3931 19.0039L15.7155 13.1336L19.8761 9.38941C20.1485 9.14359 20.2485 8.76019 20.1311 8.41256Z" fill="#F3CD03"/>
<path d="M42.1447 8.41256C42.0871 8.24274 41.981 8.09353 41.8395 7.98335C41.698 7.87316 41.5273 7.80681 41.3486 7.79251L36.1194 7.377L33.8566 2.36798C33.7845 2.20665 33.6673 2.06963 33.5191 1.97344C33.3709 1.87726 33.198 1.82602 33.0213 1.82593C32.8446 1.82583 32.6717 1.87687 32.5233 1.9729C32.375 2.06892 32.2576 2.20582 32.1854 2.36707L29.9226 7.377L24.6934 7.79251C24.5177 7.80642 24.3498 7.87066 24.2096 7.97754C24.0695 8.08442 23.9631 8.2294 23.9032 8.39516C23.8433 8.56091 23.8325 8.74041 23.8719 8.91218C23.9114 9.08395 23.9995 9.24072 24.1257 9.36373L27.99 13.1308L26.6233 19.0488C26.5818 19.2279 26.5951 19.4154 26.6615 19.5869C26.7278 19.7584 26.8442 19.9059 26.9955 20.0105C27.1468 20.115 27.326 20.1716 27.5099 20.173C27.6937 20.1744 27.8738 20.1205 28.0267 20.0183L33.021 16.6888L38.0153 20.0183C38.1716 20.1221 38.3558 20.1755 38.5433 20.1713C38.7308 20.1672 38.9126 20.1058 39.0641 19.9953C39.2156 19.8848 39.3297 19.7306 39.391 19.5533C39.4522 19.3761 39.4578 19.1843 39.4068 19.0039L37.7292 13.1336L41.8897 9.38941C42.1622 9.14359 42.2621 8.76019 42.1447 8.41256Z" fill="#F3CD03"/>
<path d="M64.1555 8.41256C64.0978 8.24274 63.9917 8.09353 63.8502 7.98335C63.7087 7.87316 63.5381 7.80681 63.3593 7.79251L58.1302 7.377L55.8673 2.36798C55.7953 2.20665 55.6781 2.06963 55.5298 1.97344C55.3816 1.87726 55.2087 1.82602 55.032 1.82593C54.8553 1.82583 54.6824 1.87687 54.5341 1.9729C54.3857 2.06892 54.2684 2.20582 54.1961 2.36707L51.9333 7.377L46.7042 7.79251C46.5285 7.80642 46.3605 7.87066 46.2204 7.97754C46.0802 8.08442 45.9739 8.2294 45.914 8.39516C45.8541 8.56091 45.8432 8.74041 45.8826 8.91218C45.9221 9.08395 46.0102 9.24072 46.1364 9.36373L50.0007 13.1308L48.634 19.0488C48.5925 19.2279 48.6058 19.4154 48.6722 19.5869C48.7386 19.7584 48.855 19.9059 49.0062 20.0105C49.1575 20.115 49.3367 20.1716 49.5206 20.173C49.7045 20.1744 49.8845 20.1205 50.0374 20.0183L55.0317 16.6888L60.0261 20.0183C60.1823 20.1221 60.3666 20.1755 60.5541 20.1713C60.7416 20.1672 60.9233 20.1058 61.0748 19.9953C61.2264 19.8848 61.3405 19.7306 61.4017 19.5533C61.463 19.3761 61.4685 19.1843 61.4175 19.0039L59.7399 13.1336L63.9005 9.38941C64.1729 9.14359 64.2729 8.76019 64.1555 8.41256Z" fill="#F3CD03"/>
<path d="M86.1721 8.41256C86.1144 8.24274 86.0083 8.09353 85.8668 7.98335C85.7253 7.87316 85.5547 7.80681 85.3759 7.79251L80.1468 7.377L77.8839 2.36798C77.8119 2.20665 77.6947 2.06963 77.5464 1.97344C77.3982 1.87726 77.2253 1.82602 77.0486 1.82593C76.8719 1.82583 76.699 1.87687 76.5507 1.9729C76.4023 2.06892 76.285 2.20582 76.2127 2.36707L73.9499 7.377L68.7208 7.79251C68.5451 7.80642 68.3771 7.87066 68.237 7.97754C68.0968 8.08442 67.9905 8.2294 67.9306 8.39516C67.8707 8.56091 67.8598 8.74041 67.8992 8.91218C67.9387 9.08395 68.0268 9.24072 68.153 9.36373L72.0173 13.1308L70.6506 19.0488C70.6091 19.2279 70.6224 19.4154 70.6888 19.5869C70.7552 19.7584 70.8716 19.9059 71.0228 20.0105C71.1741 20.115 71.3533 20.1716 71.5372 20.173C71.7211 20.1744 71.9011 20.1205 72.054 20.0183L77.0483 16.6888L82.0427 20.0183C82.1989 20.1221 82.3832 20.1755 82.5707 20.1713C82.7582 20.1672 82.9399 20.1058 83.0914 19.9953C83.243 19.8848 83.3571 19.7306 83.4183 19.5533C83.4796 19.3761 83.4851 19.1843 83.4341 19.0039L81.7565 13.1336L85.9171 9.38941C86.1895 9.14359 86.2895 8.76019 86.1721 8.41256Z" fill="#F3CD03"/>
<path d="M94.0319 13.1308L92.6652 19.0488C92.6229 19.228 92.6356 19.4158 92.7017 19.5877C92.7677 19.7596 92.8841 19.9075 93.0356 20.0122C93.187 20.1169 93.3666 20.1735 93.5507 20.1746C93.7348 20.1757 93.915 20.1212 94.0677 20.0183L99.062 16.6888L104.056 20.0183C104.213 20.1221 104.397 20.1755 104.584 20.1714C104.772 20.1673 104.954 20.1058 105.105 19.9953C105.257 19.8849 105.371 19.7306 105.432 19.5534C105.493 19.3761 105.499 19.1844 105.448 19.0039L103.77 13.1336L107.931 9.38944C108.064 9.26946 108.159 9.11304 108.204 8.93955C108.25 8.76605 108.243 8.58308 108.186 8.41327C108.128 8.24345 108.022 8.09424 107.88 7.98408C107.739 7.87392 107.568 7.80764 107.39 7.79345L102.16 7.37703L99.8976 2.36801C99.8255 2.20672 99.7082 2.06976 99.5599 1.97366C99.4116 1.87755 99.2387 1.82642 99.062 1.82642C98.8853 1.82642 98.7124 1.87755 98.5641 1.97366C98.4159 2.06976 98.2986 2.20672 98.2264 2.36801L95.9636 7.37703L90.7344 7.79254C90.5588 7.80645 90.3908 7.87069 90.2507 7.97757C90.1105 8.08445 90.0041 8.22943 89.9442 8.39518C89.8843 8.56094 89.8735 8.74044 89.9129 8.91221C89.9524 9.08398 90.0405 9.24074 90.1667 9.36376L94.0319 13.1308ZM96.6488 9.16288C96.8125 9.14998 96.9697 9.09328 97.104 8.99871C97.2383 8.90414 97.3446 8.77519 97.4119 8.62538L99.062 4.97387L100.712 8.62538C100.779 8.77519 100.886 8.90414 101.02 8.99871C101.154 9.09328 101.312 9.14998 101.475 9.16288L105.119 9.45181L102.118 12.1521C101.858 12.387 101.754 12.7484 101.849 13.0859L102.999 17.108L99.572 14.8231C99.4216 14.7222 99.2445 14.6683 99.0634 14.6683C98.8822 14.6683 98.7052 14.7222 98.5548 14.8231L94.9739 17.2107L95.937 13.0409C95.9723 12.8876 95.9676 12.7277 95.9232 12.5767C95.8789 12.4257 95.7965 12.2887 95.6838 12.1787L92.8973 9.4619L96.6488 9.16288Z" fill="#F3CD03"/>
</g>
<defs>
<clipPath id="clip0_964_16191">
<rect width="110.068" height="22" fill="white"/>
</clipPath>
</defs>
</svg>
